<?xml version="1.0" encoding="UTF-8"?>
<svg id="Layer_2" data-name="Layer 2" xmlns="http://www.w3.org/2000/svg" viewBox="0 0 22.32 23">
  <defs>
    <style>
      .cls-1 {
        fill: #000;
        stroke-width: 0px;
      }
    </style>
  </defs>
  <g id="Layer_1-2" data-name="Layer 1">
    <path class="cls-1" d="M20.06,15.94c-1.59-.73-3.52-.48-4.81.64-.04.04-.09.07-.13.11l-.09.07-6.99-3.88v-.03c.39-.9.39-1.81.02-2.71v-.03s.02-.02.02-.02l7-3.89.03.03s.04.05.05.07c.03.04.06.08.09.1,1.28,1.11,3.2,1.38,4.78.66,1.6-.72,2.5-2.28,2.25-3.86-.16-1.04-.78-1.94-1.75-2.54-.96-.6-2.17-.81-3.32-.57-1.11.23-2.08.87-2.66,1.77-.58.9-.71,1.98-.37,2.96.08.23.03.35-.2.48-2,1.1-4.09,2.26-6.39,3.55-.21.11-.34.14-.56-.04-1.32-1.07-2.79-1.33-4.37-.77C1.07,8.58.16,9.7.01,11.25c-.14,1.53.83,2.99,2.43,3.65,1.57.65,3.4.36,4.64-.73.09-.07.16-.11.24-.11.06,0,.12.02.2.06,2.42,1.35,4.54,2.53,6.47,3.59.22.12.27.23.19.46-.44,1.25-.12,2.58.85,3.57.97.99,2.41,1.44,3.84,1.21,1.77-.28,3.14-1.54,3.4-3.14.26-1.57-.63-3.12-2.22-3.86h0ZM18.14,1.29h0c.73,0,1.41.25,1.93.71.52.46.8,1.08.8,1.74,0,1.34-1.23,2.43-2.73,2.43s-2.72-1.09-2.72-2.44c0-1.34,1.22-2.44,2.71-2.44ZM4.16,13.94h-.02c-.73,0-1.41-.26-1.92-.73-.51-.46-.79-1.08-.78-1.73,0-.66.3-1.27.81-1.73.52-.46,1.21-.7,1.95-.7,1.5.02,2.7,1.12,2.69,2.47-.01,1.33-1.24,2.41-2.73,2.41h0ZM18.15,21.7h0c-1.5,0-2.72-1.09-2.72-2.44,0-.65.28-1.27.79-1.73.51-.46,1.19-.72,1.92-.72h0c.73,0,1.42.26,1.93.72.52.46.8,1.08.8,1.73,0,1.34-1.23,2.43-2.73,2.43h0Z"/>
  </g>
</svg>