<?xml version="1.0" encoding="UTF-8"?>
<svg id="Layer_2" data-name="Layer 2" xmlns="http://www.w3.org/2000/svg" viewBox="0 0 27.74 23">
  <defs>
    <style>
      .cls-1 {
        fill: #000;
      }

      .cls-1, .cls-2 {
        stroke-width: 0px;
      }

      .cls-2 {
        fill: #ef8e79;
      }
    </style>
  </defs>
  <g id="Layer_1-2" data-name="Layer 1">
    <path class="cls-2" d="M19.02,1.6c-1.52.22-2.67,1.05-3.61,2.14-.26.3-.47.64-.72.95-.42.53-1.21.53-1.64,0-.11-.13-.2-.28-.3-.42-.48-.67-1.05-1.26-1.74-1.74-2.52-1.78-6.29-1.15-8.07,1.32-1.7,2.37-1.72,4.85-.32,7.35.73,1.29,1.74,2.4,2.88,3.38,1.93,1.66,3.91,3.27,5.87,4.89.82.67,1.65,1.33,2.49,2h0c.06-.05.1-.07.13-.1,2.05-1.65,4.1-3.29,6.14-4.95,1.45-1.18,2.85-2.41,4.02-3.84.93-1.14,1.65-2.37,1.86-3.81.29-2.02-.15-3.88-1.63-5.43-1.43-1.49-3.26-2.06-5.37-1.75Z"/>
    <path class="cls-1" d="M18.92.08c-1.75.21-3.16,1.04-4.34,2.23-.24.25-.46.51-.72.79,0,0,0,0,0,0h0s0,0,0,0c-.12-.14-.21-.27-.32-.38C11.65.6,9.27-.39,6.31.14,3.46.66,1.56,2.3.58,4.8-.5,7.57-.04,10.21,1.67,12.67c.95,1.37,2.12,2.58,3.42,3.66,2.53,2.1,5.1,4.17,7.66,6.24.73.59,1.54.56,2.3-.04,1.97-1.58,3.94-3.16,5.9-4.75,1.66-1.34,3.26-2.74,4.58-4.38.87-1.08,1.58-2.24,1.91-3.56.68-2.7.22-5.22-1.72-7.37C23.95.52,21.63-.24,18.92.08ZM26.02,8.78c-.21,1.44-.93,2.67-1.86,3.81-1.17,1.43-2.57,2.66-4.02,3.84-2.04,1.66-4.09,3.3-6.14,4.95-.03.03-.07.05-.13.1h0c-.84-.67-1.68-1.33-2.49-2-1.97-1.62-3.94-3.23-5.87-4.89-1.14-.98-2.15-2.09-2.88-3.38-1.4-2.5-1.39-4.99.32-7.35,1.78-2.47,5.55-3.1,8.07-1.32.69.49,1.27,1.07,1.74,1.74.1.14.19.28.3.42.43.53,1.22.53,1.64,0,.25-.31.46-.65.72-.95.94-1.1,2.08-1.92,3.61-2.14,2.11-.31,3.94.25,5.37,1.75,1.48,1.55,1.92,3.41,1.63,5.43Z"/>
  </g>
</svg>