<?xml version="1.0" encoding="UTF-8"?>
<svg id="Layer_2" data-name="Layer 2" xmlns="http://www.w3.org/2000/svg" viewBox="0 0 27.74 23">
  <defs>
    <style>
      .cls-1 {
        fill: #000;
        stroke-width: 0px;
      }
    </style>
  </defs>
  <g id="Layer_1-2" data-name="Layer 1">
    <path class="cls-1" d="M13.87,3.1c.25-.28.47-.54.72-.79,1.18-1.19,2.59-2.02,4.34-2.23,2.71-.33,5.03.44,6.8,2.39,1.94,2.15,2.4,4.66,1.72,7.37-.33,1.32-1.04,2.48-1.91,3.56-1.32,1.65-2.93,3.04-4.58,4.38-1.96,1.59-3.93,3.17-5.9,4.75-.75.6-1.57.63-2.3.04-2.56-2.07-5.13-4.14-7.66-6.24-1.3-1.08-2.47-2.29-3.42-3.66C-.04,10.21-.5,7.57.58,4.8,1.56,2.3,3.46.66,6.31.14c2.96-.53,5.34.45,7.23,2.58.1.12.2.24.32.38h0ZM13.87,21.47c.06-.05.1-.07.13-.1,2.05-1.65,4.1-3.29,6.14-4.95,1.45-1.18,2.85-2.41,4.02-3.84.93-1.14,1.65-2.37,1.86-3.81.29-2.02-.15-3.88-1.63-5.43-1.43-1.49-3.26-2.06-5.37-1.75-1.52.22-2.67,1.05-3.61,2.14-.26.3-.47.64-.72.95-.42.53-1.21.53-1.64,0-.11-.13-.2-.28-.3-.42-.48-.67-1.05-1.26-1.74-1.74-2.52-1.78-6.29-1.15-8.07,1.32-1.7,2.37-1.72,4.85-.32,7.35.73,1.29,1.74,2.4,2.88,3.38,1.93,1.66,3.91,3.27,5.87,4.89.82.67,1.65,1.33,2.49,2h0Z"/>
  </g>
</svg>