<?xml version="1.0" encoding="UTF-8"?>
<svg id="Layer_2" data-name="Layer 2" xmlns="http://www.w3.org/2000/svg" viewBox="0 0 38.8 36">
  <defs>
    <style>
      .cls-1 {
        fill: #fff;
      }

      .cls-1, .cls-2 {
        stroke-width: 0px;
      }

      .cls-2 {
        fill: #ffcc60;
      }
    </style>
  </defs>
  <g id="Layer_1-2" data-name="Layer 1">
    <path class="cls-2" d="M0,18C0,8.06,8.69,0,19.4,0s19.4,8.06,19.4,18-8.69,18-19.4,18S0,27.94,0,18Z"/>
    <path class="cls-1" d="M23.68,18.76c2.54-1.39,4.25-3.98,4.25-6.94,0-4.42-3.81-8.02-8.49-8.02s-8.49,3.6-8.49,8.02c0,2.96,1.71,5.55,4.25,6.94-5.84,1.67-10.08,6.7-10.08,12.62,0,.46.4.84.88.84s.88-.37.88-.84c0-6.36,5.63-11.54,12.56-11.54s12.56,5.17,12.56,11.54c0,.46.4.84.88.84s.88-.37.88-.84c0-5.92-4.25-10.94-10.08-12.62ZM12.71,11.81c0-3.5,3.02-6.35,6.72-6.35s6.72,2.85,6.72,6.35-3.02,6.35-6.72,6.35-6.72-2.85-6.72-6.35Z"/>
  </g>
</svg>