<?xml version="1.0" encoding="UTF-8"?>
<svg id="Layer_2" data-name="Layer 2" xmlns="http://www.w3.org/2000/svg" viewBox="0 0 60 60">
  <defs>
    <style>
      .cls-1 {
        fill: #4b4b4b;
      }

      .cls-1, .cls-2 {
        stroke-width: 0px;
      }

      .cls-2 {
        fill: rgba(245, 245, 245, .8);
      }
    </style>
  </defs>
  <g id="Layer_1-2" data-name="Layer 1">
    <circle class="cls-2" cx="30" cy="30" r="30"/>
    <path class="cls-1" d="M30.71,10.67c-.39-.39-1.02-.39-1.41,0l-6.36,6.36c-.39.39-.39,1.02,0,1.41.39.39,1.02.39,1.41,0l5.66-5.66,5.66,5.66c.39.39,1.02.39,1.41,0,.39-.39.39-1.02,0-1.41l-6.36-6.36ZM31,30V11.38h-2v18.62h2Z"/>
    <path class="cls-1" d="M21.54,45.07v-7.86h-2.66v-.95h6.44v.95h-2.66v7.86h-1.12ZM29.81,45.22c-2.21,0-3.76-1.76-3.76-4.58s1.55-4.54,3.76-4.54,3.76,1.72,3.76,4.54-1.55,4.58-3.76,4.58ZM29.81,44.25c1.57,0,2.62-1.42,2.62-3.61s-1.04-3.56-2.62-3.56-2.62,1.36-2.62,3.56,1.03,3.61,2.62,3.61ZM35.46,45.07v-8.81h2.52c1.97,0,3.29.67,3.29,2.59s-1.31,2.72-3.24,2.72h-1.45v3.49h-1.12ZM36.58,40.68h1.31c1.55,0,2.28-.56,2.28-1.82s-.78-1.68-2.33-1.68h-1.26v3.5Z"/>
  </g>
</svg>